<?xml version="1.0" encoding="UTF-8"?>
<svg id="Layer_2" data-name="Layer 2" xmlns="http://www.w3.org/2000/svg" viewBox="0 0 225.23 221.64">
  <defs>
    <style>
      .cls-1 {
        fill-rule: evenodd;
      }

      .cls-1, .cls-2 {
        fill: #0050ff;
        stroke-width: 0px;
      }
    </style>
  </defs>
  <path class="cls-1" d="m0,91.27c0,49.91,36.23,91.27,88.88,91.27s88.54-41.36,88.54-91.27C177.41,38.29,141.86,0,88.88,0S0,38.29,0,91.27h0Zm34.18,0c0-33.16,20.17-65.29,54.69-65.29s54.35,32.13,54.35,65.29c0,31.11-16.75,65.29-54.35,65.29s-54.69-34.18-54.69-65.29h0Z"/>
  <path class="cls-2" d="m225.23,221.64v-12.17h-31.52c12.61-12.39,29.09-27.43,29.09-43.8,0-15.15-9.51-22.56-24.22-22.56-7.85,0-15.93,1.99-22.89,5.53l1.22,12.83c5.09-3.32,11.28-6.19,17.81-6.19s12.61,3.32,12.61,10.4c0,14.16-26.21,36.05-33.4,43.02v12.94h51.32Z"/>
</svg>