<svg width="96" height="96" viewBox="0 0 96 96" fill="none" xmlns="http://www.w3.org/2000/svg">
<path d="M56.5 45L44.8125 57L39.5 51.5455" stroke="#FA1E5A" stroke-width="6" stroke-linecap="round" stroke-linejoin="round"/>
<path d="M57.2 36.1111C57.2 33.9928 57.2 32.9337 56.9649 32.0647C56.3269 29.7066 54.467 27.8647 52.0859 27.2328C51.2084 27 50.1389 27 48 27C45.8611 27 44.7916 27 43.9141 27.2328C41.533 27.8647 39.6731 29.7066 39.0351 32.0647C38.8 32.9337 38.8 33.9928 38.8 36.1111M32.36 68H63.64C66.2162 68 67.5044 68 68.4884 67.5035C69.3539 67.0667 70.0576 66.3698 70.4986 65.5126C71 64.5381 71 63.2625 71 60.7111V43.4C71 40.8486 71 39.573 70.4986 38.5985C70.0576 37.7413 69.3539 37.0444 68.4884 36.6076C67.5044 36.1111 66.2162 36.1111 63.64 36.1111H32.36C29.7838 36.1111 28.4956 36.1111 27.5116 36.6076C26.6461 37.0444 25.9424 37.7413 25.5014 38.5985C25 39.573 25 40.8486 25 43.4V60.7111C25 63.2625 25 64.5381 25.5014 65.5126C25.9424 66.3698 26.6461 67.0667 27.5116 67.5035C28.4956 68 29.7838 68 32.36 68Z" stroke="#FA1E5A" stroke-width="6" stroke-linecap="round" stroke-linejoin="round"/>
</svg>