<svg width="96" height="96" viewBox="0 0 96 96" fill="none" xmlns="http://www.w3.org/2000/svg">
<path d="M32.44 63.55L63.55 32.44M34.67 12.44V3.56M61.33 83.56V92.44M12.44 34.67H3.56M83.56 61.33H92.44M16.51 16.51L10.22 10.22M79.49 79.49L85.78 85.78M48 73.14L38.57 82.57C31.61 89.53 20.36 89.53 13.4 82.57C6.44 75.61 6.44 64.36 13.4 57.4L22.84 48M73.15 48L82.58 38.57C89.54 31.61 89.54 20.36 82.58 13.4C75.62 6.44 64.37 6.44 57.41 13.4L48 22.84" stroke="#FA1E5A" stroke-width="7" stroke-linecap="round" stroke-linejoin="round"/>
</svg>