<svg width="96" height="96" viewBox="0 0 96 96" fill="none" xmlns="http://www.w3.org/2000/svg">
<line x1="73" y1="48" x2="84" y2="26" stroke="#FA1E5A" stroke-width="3"/>
<line x1="53" y1="59" x2="23" y2="21" stroke="#FA1E5A" stroke-width="3"/>
<line x1="8.6" y1="52" x2="83" y2="24" stroke="#FA1E5A" stroke-width="3"/>
<line x1="39" y1="62" x2="8.8" y2="53.5" stroke="#FA1E5A" stroke-width="3"/>
<line x1="83.7" y1="24.1" x2="33.9" y2="18.1" stroke="#FA1E5A" stroke-width="3"/>
<circle cx="63.5" cy="71.5" r="24" fill="white" stroke="white" stroke-width="2"/>
<circle cx="84.5" cy="23.5" r="11" fill="#FA1E5A" stroke="white"/>
<circle cx="7.7" cy="53" r="7.3" fill="#FA1E5A" stroke="white" stroke-width="1"/>
<circle cx="20" cy="15" r="14.5" fill="#FA1E5A" stroke="white" stroke-width="2"/>
<circle cx="63.5" cy="71.5" r="20" stroke="#FA1E5A" stroke-width="4"/>
<path fill-rule="evenodd" clip-rule="evenodd" d="M50.1 78.6C52.8 74.8 58 72.5 63.5 72.5C69 72.5 74.2 74.8 77 78.6C77 78.6 77.1 78.7 77.1 78.7C77.3 79 77.6 79.4 77.8 79.7C78 80.1 78.2 80.6 78.2 81.2C78.1 81.7 78 82.1 77.8 82.4C77.6 82.8 77.3 83.1 77 83.4C76.5 83.8 76 83.9 75.5 84C75.1 84 74.6 84 74.1 84H52.9C52.4 84 51.9 84 51.5 84C51 83.9 50.5 83.8 50 83.4C49.7 83.1 49.4 82.8 49.2 82.4C49 82.1 48.9 81.7 48.8 81.2C48.8 80.6 49 80.1 49.2 79.7C49.4 79.4 49.7 79 49.9 78.7C50 78.6 50 78.6 50.1 78.6Z" fill="#FA1E5A"/>
<path fill-rule="evenodd" clip-rule="evenodd" d="M55 64.5C55 60.4 58.4 57 63.5 57C68.6 57 72 60.4 72 64.5C72 68.6 68.6 72 63.5 72C58.4 72 55 68.6 55 64.5Z" fill="#FA1E5A"/>
</svg>